<?xml version="1.0" standalone="no"?>
<!DOCTYPE svg PUBLIC "-//W3C//DTD SVG 20010904//EN"
 "http://www.w3.org/TR/2001/REC-SVG-20010904/DTD/svg10.dtd">
<svg version="1.0" xmlns="http://www.w3.org/2000/svg"
 width="205.000000pt" height="164.000000pt" viewBox="0 0 205.000000 164.000000"
 preserveAspectRatio="xMidYMid meet">

<g transform="translate(0.000000,164.000000) scale(0.100000,-0.100000)"
fill="#000000" stroke="none">
<path d="M706 1326 c18 -13 19 -28 19 -211 0 -163 -2 -197 -15 -205 -11 -7 -4
-10 25 -10 29 0 36 3 25 10 -12 7 -16 42 -18 182 -2 95 -1 171 1 168 3 -3 28
-72 56 -155 72 -209 70 -205 108 -205 23 0 33 5 38 21 4 11 4 23 1 26 -3 4 -6
-2 -6 -12 0 -39 -19 6 -86 202 l-69 203 -49 0 c-46 0 -48 -1 -30 -14z"/>
<path d="M1067 1298 c-33 -92 -96 -274 -102 -298 -14 -59 15 12 55 130 23 69
46 132 51 140 5 9 8 -59 6 -164 l-2 -179 -42 -14 c-133 -45 -139 -169 -9 -204
149 -40 176 -50 195 -75 64 -81 -30 -166 -147 -134 -46 12 -110 73 -129 123
-11 30 -12 29 -10 -27 l2 -60 50 -25 c62 -33 180 -36 232 -8 58 31 79 106 47
168 -16 32 -73 62 -141 75 -123 23 -175 80 -120 132 19 18 35 22 86 22 70 0
116 -21 146 -66 17 -27 28 -24 39 12 5 16 -1 24 -31 41 -21 11 -50 23 -65 27
-36 8 -40 34 -36 235 3 147 5 164 22 177 18 13 15 14 -31 14 -50 0 -50 0 -66
-42z"/>
<path d="M1797 665 c-48 -63 -86 -115 -83 -115 5 0 136 166 161 203 37 57 7
22 -78 -88z"/>
<path d="M1689 523 c-13 -16 -12 -17 4 -4 16 13 21 21 13 21 -2 0 -10 -8 -17
-17z"/>
<path d="M916 425 c4 -8 11 -15 16 -15 6 0 5 6 -2 15 -7 8 -14 15 -16 15 -2 0
-1 -7 2 -15z"/>
<path d="M220 423 c0 -5 10 -19 21 -33 l20 -25 -16 33 c-15 30 -25 41 -25 25z"/>
<path d="M412 399 c6 -16 12 -28 14 -26 5 5 -13 57 -20 57 -3 0 0 -14 6 -31z"/>
<path d="M1290 395 c0 -19 3 -35 8 -35 4 0 7 16 7 35 0 19 -3 35 -7 35 -5 0
-8 -16 -8 -35z"/>
<path d="M1402 395 c0 -22 2 -32 5 -22 4 17 7 17 31 -5 l27 -23 -26 30 c-15
17 -29 37 -32 45 -3 8 -5 -3 -5 -25z"/>
<path d="M1431 414 c0 -11 3 -14 6 -6 3 7 2 16 -1 19 -3 4 -6 -2 -5 -13z"/>
<path d="M1556 417 c3 -10 9 -15 12 -12 3 3 0 11 -7 18 -10 9 -11 8 -5 -6z"/>
<path d="M1763 395 c0 -22 2 -30 4 -17 2 12 2 30 0 40 -3 9 -5 -1 -4 -23z"/>
<path d="M282 395 c0 -16 2 -22 5 -12 2 9 2 23 0 30 -3 6 -5 -1 -5 -18z"/>
<path d="M646 398 c10 -14 21 -24 23 -22 3 3 -6 15 -18 27 l-24 22 19 -27z"/>
<path d="M752 400 c0 -14 2 -19 5 -12 2 6 2 18 0 25 -3 6 -5 1 -5 -13z"/>
<path d="M822 400 c0 -14 2 -19 5 -12 2 6 2 18 0 25 -3 6 -5 1 -5 -13z"/>
<path d="M386 393 c-6 -14 -5 -15 5 -6 7 7 10 15 7 18 -3 3 -9 -2 -12 -12z"/>
<path d="M1193 381 c0 -11 5 -18 9 -15 4 3 5 11 1 19 -7 21 -12 19 -10 -4z"/>
<path d="M1535 389 c-4 -6 -5 -12 -2 -15 2 -3 7 2 10 11 7 17 1 20 -8 4z"/>
<path d="M1780 392 c0 -5 7 -15 15 -22 8 -7 15 -9 15 -6 0 4 -7 14 -15 22 -8
9 -15 11 -15 6z"/>
<path d="M531 374 c0 -11 3 -14 6 -6 3 7 2 16 -1 19 -3 4 -6 -2 -5 -13z"/>
<path d="M950 386 c0 -2 7 -9 15 -16 9 -7 15 -8 15 -2 0 5 -7 12 -15 16 -8 3
-15 4 -15 2z"/>
</g>
</svg>
